<?xml version="1.0" encoding="utf-8"?>
<!-- Generator: Adobe Illustrator 24.3.0, SVG Export Plug-In . SVG Version: 6.00 Build 0)  -->
<svg version="1.1" id="Layer_1" xmlns="http://www.w3.org/2000/svg" xmlns:xlink="http://www.w3.org/1999/xlink" x="0px" y="0px"
	 viewBox="0 0 728.64 141.32" style="enable-background:new 0 0 728.64 141.32;" xml:space="preserve">
<style type="text/css">
	.st0{fill-rule:evenodd;clip-rule:evenodd;fill:#3B8CA9;}
	
		.st1{fill-rule:evenodd;clip-rule:evenodd;fill:#2E2E2E;stroke:#000000;stroke-width:6;stroke-linecap:round;stroke-linejoin:round;stroke-miterlimit:10;}
	.st2{fill-rule:evenodd;clip-rule:evenodd;fill:#4F9AB6;}
	
		.st3{fill-rule:evenodd;clip-rule:evenodd;fill:#4F9AB6;stroke:#FFFFFF;stroke-width:6;stroke-linecap:round;stroke-linejoin:round;stroke-miterlimit:10;}
	
		.st4{fill-rule:evenodd;clip-rule:evenodd;fill:none;stroke:#FFFFFF;stroke-width:6;stroke-linecap:round;stroke-linejoin:round;stroke-miterlimit:10;}
	
		.st5{fill-rule:evenodd;clip-rule:evenodd;fill:#207DA1;stroke:#FFFFFF;stroke-width:6;stroke-linecap:round;stroke-linejoin:round;stroke-miterlimit:10;}
</style>
<g>
	<path d="M63.66,81.79c0.04,0.5,0.11,1.04,0.22,1.62c0.11,0.58,0.26,1.13,0.46,1.67c0.2,0.54,0.48,1.04,0.84,1.48
		c0.36,0.45,0.83,0.77,1.4,0.94c0.79,0.25,1.5,0.4,2.13,0.43c0.63,0.04,1.09,0.05,1.38,0.05c0.29,0,0.43,0.09,0.43,0.27
		c0,0.18-0.11,0.31-0.32,0.38c-0.22,0.07-0.49,0.11-0.81,0.11c-0.29,0-0.83-0.01-1.62-0.03c-0.79-0.02-1.66-0.05-2.59-0.08
		c-0.94-0.04-1.85-0.07-2.73-0.11c-0.88-0.04-1.58-0.07-2.08-0.11c-0.61-0.07-1.02-0.14-1.22-0.22c-0.2-0.07-0.3-0.18-0.3-0.32
		c0-0.22,0.13-0.34,0.38-0.38c0.14-0.04,0.23-0.24,0.27-0.62c0.04-0.38,0.02-0.82-0.05-1.32l-2.59-27.86h-0.16L43.46,85.79
		c-0.58,1.19-0.95,1.96-1.13,2.32c-0.18,0.36-0.4,0.54-0.65,0.54c-0.18,0-0.38-0.17-0.59-0.51c-0.22-0.34-0.58-1-1.08-1.97
		c-0.36-0.65-0.87-1.65-1.54-3c-0.67-1.35-1.34-2.71-2.03-4.08c-0.68-1.37-1.3-2.58-1.84-3.65c-0.54-1.06-0.85-1.66-0.92-1.81
		c-0.07-0.14-0.29-0.59-0.65-1.35c-0.36-0.76-0.79-1.66-1.3-2.73c-0.5-1.06-1.04-2.2-1.59-3.43c-0.56-1.22-1.09-2.38-1.59-3.46
		c-0.5-1.08-0.94-2.02-1.3-2.83c-0.36-0.81-0.59-1.34-0.7-1.59h-0.22L24.18,83.3c-0.04,0.43-0.05,0.88-0.05,1.35
		c0,0.47,0,0.94,0,1.4c0,0.4,0.14,0.76,0.41,1.08s0.6,0.52,1,0.59c0.47,0.11,0.88,0.18,1.24,0.22C27.13,87.98,27.4,88,27.58,88
		c0.29,0,0.43,0.09,0.43,0.27c0,0.32-0.32,0.49-0.97,0.49c-0.5,0-1.03-0.01-1.57-0.03c-0.54-0.02-1.05-0.04-1.54-0.05
		c-0.49-0.02-0.9-0.04-1.24-0.05c-0.34-0.02-0.57-0.03-0.68-0.03c-0.11,0-0.34,0.01-0.7,0.03c-0.36,0.02-0.77,0.04-1.22,0.05
		c-0.45,0.02-0.91,0.04-1.38,0.05c-0.47,0.02-0.88,0.03-1.24,0.03c-0.61,0-0.92-0.16-0.92-0.49c0-0.18,0.18-0.27,0.54-0.27
		c0.22,0,0.44-0.01,0.67-0.03c0.23-0.02,0.55-0.06,0.94-0.13c0.9-0.18,1.46-0.71,1.67-1.59c0.22-0.88,0.38-1.84,0.49-2.89
		l3.89-35.21c0.07-0.65,0.27-0.97,0.59-0.97c0.29,0,0.56,0.27,0.81,0.81l16.52,33.97l15.88-33.91c0.25-0.58,0.52-0.86,0.81-0.86
		c0.32,0,0.54,0.49,0.65,1.46L63.66,81.79z"/>
	<path d="M87.36,54.95c0.29-0.76,0.5-1.24,0.65-1.46c0.14-0.22,0.31-0.32,0.49-0.32c0.25,0,0.44,0.15,0.57,0.46
		c0.13,0.31,0.31,0.71,0.57,1.21c0.14,0.32,0.46,1.08,0.94,2.27c0.49,1.19,1.07,2.62,1.76,4.29c0.68,1.67,1.43,3.51,2.24,5.51
		s1.61,3.97,2.4,5.91c0.79,1.94,1.54,3.79,2.24,5.54c0.7,1.75,1.3,3.2,1.81,4.35c0.43,1.04,0.84,1.87,1.21,2.48
		c0.38,0.61,0.74,1.1,1.08,1.46c0.34,0.36,0.66,0.61,0.94,0.76c0.29,0.14,0.56,0.25,0.81,0.32c0.36,0.11,0.7,0.18,1.03,0.22
		c0.32,0.04,0.61,0.05,0.86,0.05c0.14,0,0.28,0.03,0.4,0.08c0.13,0.05,0.19,0.15,0.19,0.3c0,0.14-0.11,0.24-0.32,0.3
		c-0.22,0.05-0.47,0.08-0.76,0.08c-0.18,0-0.52,0-1.03,0c-0.47,0-1.06,0-1.78,0c-0.68,0-1.43-0.01-2.24-0.03
		c-0.81-0.02-1.63-0.05-2.46-0.08c-0.47-0.04-0.86-0.06-1.19-0.08c-0.32-0.02-0.49-0.1-0.49-0.24c0-0.11,0.03-0.17,0.08-0.19
		c0.05-0.02,0.13-0.06,0.24-0.14c0.14-0.07,0.3-0.2,0.46-0.38c0.16-0.18,0.15-0.47-0.03-0.86l-4.27-10.53
		c-0.11-0.18-0.25-0.27-0.43-0.27H82.39c-0.22,0-0.38,0.13-0.49,0.38l-2.7,7.34c-0.47,1.22-0.7,2.25-0.7,3.08
		c0,0.47,0.17,0.79,0.51,0.97c0.34,0.18,0.71,0.27,1.11,0.27h0.43c0.32,0,0.49,0.13,0.49,0.38s-0.23,0.38-0.7,0.38
		c-0.29,0-0.65-0.01-1.08-0.03c-0.43-0.02-0.86-0.04-1.3-0.05c-0.43-0.02-0.82-0.04-1.16-0.05c-0.34-0.02-0.59-0.03-0.73-0.03
		c-0.11,0-0.33,0.01-0.67,0.03c-0.34,0.02-0.74,0.04-1.19,0.05c-0.45,0.02-0.94,0.04-1.46,0.05c-0.52,0.02-1.02,0.03-1.48,0.03
		c-0.61,0-0.92-0.13-0.92-0.38S70.5,88,70.78,88c0.18,0,0.41-0.01,0.7-0.03c0.29-0.02,0.52-0.04,0.7-0.08
		c1.08-0.14,1.9-0.59,2.46-1.35c0.56-0.76,1.07-1.71,1.54-2.86L87.36,54.95z M92.65,74.07c0.14,0,0.2-0.11,0.16-0.32l-4.7-12.58
		c-0.29-0.68-0.56-0.68-0.81,0l-4.43,12.58c-0.07,0.22-0.02,0.32,0.16,0.32H92.65z"/>
	<path d="M113.82,67.32c0-1.76,0-3.2,0-4.32c0-1.12,0-2.02,0-2.7c0-0.72-0.01-1.29-0.03-1.7c-0.02-0.41-0.05-0.8-0.08-1.16
		c-0.07-0.79-0.22-1.39-0.43-1.78c-0.22-0.4-0.72-0.65-1.51-0.76c-0.18-0.04-0.44-0.06-0.78-0.08c-0.34-0.02-0.62-0.03-0.84-0.03
		c-0.25,0-0.38-0.13-0.38-0.38c0-0.25,0.25-0.38,0.76-0.38c0.54,0,1.12,0.01,1.73,0.03c0.61,0.02,1.19,0.03,1.73,0.03
		c0.54,0,1,0.01,1.38,0.03c0.38,0.02,0.6,0.03,0.67,0.03c0.14,0,0.42-0.01,0.84-0.03c0.41-0.02,0.91-0.03,1.48-0.03
		c0.61,0,1.26-0.01,1.94-0.03c0.68-0.02,1.39-0.03,2.11-0.03c1.19,0,2.58,0.01,4.19,0.03c1.6,0.02,3.28,0.17,5.02,0.46
		c1.75,0.29,3.47,0.8,5.18,1.54c1.71,0.74,3.27,1.81,4.67,3.21c1.19,1.19,2.26,2.75,3.21,4.67c0.95,1.93,1.43,4.26,1.43,6.99
		c0,1.44-0.14,2.8-0.43,4.08c-0.29,1.28-0.67,2.46-1.13,3.54c-0.47,1.08-1.02,2.06-1.65,2.94c-0.63,0.88-1.27,1.67-1.92,2.35
		c-0.5,0.54-1.16,1.12-1.97,1.73c-0.81,0.61-1.8,1.18-2.97,1.7c-1.17,0.52-2.54,0.96-4.1,1.32c-1.57,0.36-3.36,0.54-5.37,0.54
		c-1.04,0-2.15-0.03-3.32-0.08c-1.17-0.05-2.28-0.12-3.32-0.19c-1.04-0.07-1.93-0.14-2.65-0.19c-0.72-0.05-1.13-0.08-1.24-0.08
		c-0.07,0-0.29,0.01-0.65,0.03c-0.36,0.02-0.79,0.03-1.3,0.03c-0.5,0.04-1.01,0.06-1.51,0.08c-0.5,0.02-0.95,0.03-1.35,0.03
		c-0.5,0-0.76-0.13-0.76-0.38S110.6,88,110.85,88c0.22,0,0.46-0.02,0.73-0.05c0.27-0.04,0.51-0.09,0.73-0.16
		c0.47-0.11,0.76-0.37,0.89-0.78c0.13-0.41,0.24-0.96,0.35-1.65c0.14-0.94,0.22-2.27,0.24-4c0.02-1.73,0.03-3.71,0.03-5.94V67.32z
		 M118.14,72.29c0,1.22,0,2.39,0,3.51c0,1.12,0,2.12,0,3.02c0,0.86,0.01,1.6,0.03,2.21c0.02,0.61,0.03,1.03,0.03,1.24
		c0.04,0.58,0.09,1.21,0.16,1.89c0.07,0.68,0.2,1.15,0.38,1.4c0.14,0.22,0.38,0.43,0.7,0.65c0.32,0.22,0.78,0.41,1.38,0.59
		c0.59,0.18,1.36,0.32,2.3,0.43c0.94,0.11,2.11,0.16,3.51,0.16c2.2,0,4.24-0.35,6.13-1.05c1.89-0.7,3.55-1.74,5-3.1
		c0.61-0.58,1.15-1.27,1.62-2.08c0.47-0.81,0.85-1.69,1.16-2.65c0.31-0.95,0.54-1.96,0.7-3.02c0.16-1.06,0.24-2.11,0.24-3.16
		c0-1.44-0.14-2.76-0.43-3.97c-0.29-1.21-0.65-2.29-1.08-3.24c-0.43-0.95-0.92-1.78-1.46-2.48c-0.54-0.7-1.04-1.3-1.51-1.81
		c-1.12-1.12-2.28-2.02-3.48-2.7c-1.21-0.68-2.46-1.21-3.75-1.57c-1.3-0.36-2.63-0.59-4-0.7c-1.37-0.11-2.75-0.16-4.16-0.16
		c-0.47,0-1.01,0.04-1.62,0.11c-0.61,0.07-1.03,0.14-1.24,0.22c-0.4,0.14-0.59,0.45-0.59,0.92V72.29z"/>
	<path d="M157.51,67.32c0-1.76,0-3.2,0-4.32c0-1.12,0-2.02,0-2.7c0-0.72-0.01-1.29-0.03-1.7c-0.02-0.41-0.05-0.8-0.08-1.16
		c-0.07-0.79-0.22-1.39-0.43-1.78c-0.22-0.4-0.72-0.65-1.51-0.76c-0.18-0.04-0.44-0.06-0.78-0.08c-0.34-0.02-0.62-0.03-0.84-0.03
		c-0.25,0-0.38-0.13-0.38-0.38c0-0.25,0.25-0.38,0.76-0.38c0.54,0,1.12,0.01,1.73,0.03c0.61,0.02,1.19,0.03,1.73,0.03
		c0.54,0,1,0.01,1.38,0.03c0.38,0.02,0.6,0.03,0.67,0.03c0.14,0,0.42-0.01,0.84-0.03c0.41-0.02,0.91-0.03,1.48-0.03
		c0.61,0,1.26-0.01,1.94-0.03c0.68-0.02,1.39-0.03,2.11-0.03c1.19,0,2.58,0.01,4.19,0.03c1.6,0.02,3.28,0.17,5.02,0.46
		c1.75,0.29,3.47,0.8,5.18,1.54c1.71,0.74,3.27,1.81,4.67,3.21c1.19,1.19,2.26,2.75,3.21,4.67c0.95,1.93,1.43,4.26,1.43,6.99
		c0,1.44-0.14,2.8-0.43,4.08c-0.29,1.28-0.67,2.46-1.13,3.54c-0.47,1.08-1.02,2.06-1.65,2.94c-0.63,0.88-1.27,1.67-1.92,2.35
		c-0.5,0.54-1.16,1.12-1.97,1.73c-0.81,0.61-1.8,1.18-2.97,1.7c-1.17,0.52-2.54,0.96-4.1,1.32c-1.57,0.36-3.36,0.54-5.37,0.54
		c-1.04,0-2.15-0.03-3.32-0.08c-1.17-0.05-2.28-0.12-3.32-0.19c-1.04-0.07-1.93-0.14-2.65-0.19c-0.72-0.05-1.13-0.08-1.24-0.08
		c-0.07,0-0.29,0.01-0.65,0.03c-0.36,0.02-0.79,0.03-1.3,0.03c-0.5,0.04-1.01,0.06-1.51,0.08c-0.5,0.02-0.95,0.03-1.35,0.03
		c-0.5,0-0.76-0.13-0.76-0.38s0.13-0.38,0.38-0.38c0.22,0,0.46-0.02,0.73-0.05c0.27-0.04,0.51-0.09,0.73-0.16
		c0.47-0.11,0.76-0.37,0.89-0.78c0.13-0.41,0.24-0.96,0.35-1.65c0.14-0.94,0.22-2.27,0.24-4c0.02-1.73,0.03-3.71,0.03-5.94V67.32z
		 M161.83,72.29c0,1.22,0,2.39,0,3.51c0,1.12,0,2.12,0,3.02c0,0.86,0.01,1.6,0.03,2.21c0.02,0.61,0.03,1.03,0.03,1.24
		c0.04,0.58,0.09,1.21,0.16,1.89c0.07,0.68,0.2,1.15,0.38,1.4c0.14,0.22,0.38,0.43,0.7,0.65c0.32,0.22,0.78,0.41,1.38,0.59
		c0.59,0.18,1.36,0.32,2.3,0.43c0.94,0.11,2.11,0.16,3.51,0.16c2.2,0,4.24-0.35,6.13-1.05c1.89-0.7,3.55-1.74,5-3.1
		c0.61-0.58,1.15-1.27,1.62-2.08c0.47-0.81,0.85-1.69,1.16-2.65c0.31-0.95,0.54-1.96,0.7-3.02c0.16-1.06,0.24-2.11,0.24-3.16
		c0-1.44-0.14-2.76-0.43-3.97c-0.29-1.21-0.65-2.29-1.08-3.24c-0.43-0.95-0.92-1.78-1.46-2.48c-0.54-0.7-1.04-1.3-1.51-1.81
		c-1.12-1.12-2.28-2.02-3.48-2.7c-1.21-0.68-2.46-1.21-3.75-1.57c-1.3-0.36-2.63-0.59-4-0.7c-1.37-0.11-2.75-0.16-4.16-0.16
		c-0.47,0-1.01,0.04-1.62,0.11c-0.61,0.07-1.03,0.14-1.24,0.22c-0.4,0.14-0.59,0.45-0.59,0.92V72.29z"/>
	<path d="M196.9,65.4c0.74-2.11,1.87-4.05,3.4-5.83c1.53-1.78,3.48-3.26,5.86-4.43c2.38-1.17,5.2-1.75,8.48-1.75
		c2.66,0,5.15,0.4,7.45,1.19c2.3,0.79,4.29,1.94,5.97,3.43c1.67,1.49,2.99,3.3,3.94,5.43c0.95,2.12,1.43,4.52,1.43,7.18
		c0,2.56-0.46,4.98-1.38,7.26c-0.92,2.29-2.21,4.28-3.86,5.97c-1.66,1.69-3.66,3.03-6.02,4.02c-2.36,0.99-4.96,1.48-7.8,1.48
		c-3.24,0-6.03-0.55-8.37-1.65c-2.34-1.1-4.27-2.52-5.78-4.27c-1.51-1.75-2.63-3.69-3.35-5.83c-0.72-2.14-1.08-4.24-1.08-6.29
		C195.79,69.48,196.16,67.51,196.9,65.4z M201.84,77.28c0.76,2.14,1.81,3.97,3.16,5.48c1.35,1.51,2.93,2.67,4.75,3.48
		c1.82,0.81,3.81,1.22,5.97,1.22c1.08,0,2.35-0.19,3.81-0.57s2.86-1.12,4.21-2.24c1.35-1.12,2.49-2.69,3.43-4.73
		c0.94-2.03,1.4-4.71,1.4-8.02c0-2.74-0.39-5.16-1.16-7.26c-0.77-2.11-1.82-3.86-3.13-5.26c-1.31-1.4-2.83-2.47-4.54-3.19
		c-1.71-0.72-3.5-1.08-5.37-1.08c-1.98,0-3.81,0.32-5.48,0.94c-1.67,0.63-3.11,1.57-4.32,2.81c-1.21,1.24-2.15,2.8-2.83,4.67
		c-0.68,1.87-1.03,4.05-1.03,6.53C200.71,72.74,201.08,75.14,201.84,77.28z"/>
	<path d="M249.52,70.99l-7.56-12.31c-0.54-0.9-1.07-1.66-1.59-2.27c-0.52-0.61-1.2-1.04-2.02-1.3c-0.4-0.11-0.79-0.19-1.19-0.24
		c-0.4-0.05-0.67-0.08-0.81-0.08c-0.14,0-0.25-0.05-0.32-0.16c-0.07-0.11-0.11-0.2-0.11-0.27c0-0.22,0.27-0.32,0.81-0.32
		c0.32,0,0.78,0.01,1.38,0.03c0.59,0.02,1.18,0.03,1.76,0.03c0.61,0,1.14,0.01,1.59,0.03c0.45,0.02,0.73,0.03,0.84,0.03
		s0.33-0.01,0.68-0.03c0.34-0.02,0.73-0.03,1.16-0.03c0.47,0,0.95-0.01,1.46-0.03c0.5-0.02,0.95-0.03,1.35-0.03
		c0.32,0,0.54,0.03,0.65,0.08s0.16,0.13,0.16,0.24c0,0.29-0.14,0.43-0.43,0.43c-0.18,0-0.4,0-0.65,0c-0.25,0-0.47,0.04-0.65,0.11
		c-0.22,0.04-0.37,0.12-0.46,0.24c-0.09,0.13-0.14,0.28-0.14,0.46c0,0.22,0.04,0.46,0.14,0.73c0.09,0.27,0.21,0.53,0.35,0.78
		c1.01,1.84,1.99,3.61,2.94,5.32c0.95,1.71,2.06,3.56,3.32,5.54c0.36-0.5,0.9-1.3,1.62-2.38c0.72-1.08,1.45-2.2,2.19-3.35
		c0.74-1.15,1.4-2.2,2-3.16c0.59-0.95,0.94-1.56,1.05-1.81c0.18-0.32,0.31-0.6,0.38-0.84c0.07-0.23,0.11-0.49,0.11-0.78
		c0-0.32-0.27-0.58-0.81-0.76c-0.25-0.07-0.5-0.11-0.76-0.11c-0.22,0-0.4,0-0.54,0c-0.29,0-0.43-0.14-0.43-0.43
		c0-0.22,0.27-0.32,0.81-0.32c0.9,0,1.77,0.02,2.62,0.05c0.85,0.04,1.38,0.05,1.59,0.05c0.22,0,0.73-0.02,1.54-0.05
		c0.81-0.04,1.63-0.05,2.46-0.05c0.5,0,0.76,0.11,0.76,0.32c0,0.07-0.04,0.16-0.11,0.27c-0.07,0.11-0.2,0.16-0.38,0.16
		c-0.18,0-0.42,0.02-0.73,0.05c-0.31,0.04-0.6,0.09-0.89,0.16c-0.68,0.22-1.28,0.62-1.78,1.21c-0.5,0.59-1.1,1.4-1.78,2.4
		l-7.61,11.12c0.14,0.22,0.47,0.74,0.97,1.57c0.5,0.83,1.11,1.8,1.81,2.92c0.7,1.12,1.44,2.3,2.21,3.56
		c0.77,1.26,1.5,2.45,2.19,3.56c0.68,1.12,1.29,2.07,1.81,2.86c0.52,0.79,0.87,1.3,1.05,1.51c0.4,0.5,0.76,0.92,1.11,1.24
		c0.34,0.32,0.87,0.58,1.59,0.76c0.72,0.18,1.26,0.27,1.62,0.27c0.25,0,0.38,0.13,0.38,0.38s-0.22,0.38-0.65,0.38
		c-1.48,0-2.83,0-4.05,0c-1.19,0-2.43-0.04-3.73-0.11c-0.61-0.04-1.01-0.08-1.19-0.14c-0.18-0.05-0.27-0.13-0.27-0.24
		c0-0.18,0.09-0.31,0.27-0.38c0.14-0.04,0.28-0.16,0.4-0.38c0.13-0.22,0.08-0.52-0.13-0.92c-1.3-2.27-2.6-4.51-3.92-6.72
		c-1.31-2.21-2.69-4.49-4.13-6.83l-7.29,12.04c-0.22,0.4-0.37,0.77-0.46,1.13c-0.09,0.36-0.14,0.67-0.14,0.92
		c0,0.4,0.25,0.65,0.76,0.76c0.36,0.07,0.65,0.11,0.86,0.11c0.29,0,0.43,0.14,0.43,0.43c0,0.22-0.2,0.32-0.59,0.32
		c-0.29,0-0.67-0.01-1.16-0.03c-0.49-0.02-0.97-0.04-1.46-0.05c-0.49-0.02-0.93-0.04-1.32-0.05c-0.4-0.02-0.65-0.03-0.76-0.03
		s-0.32,0.01-0.62,0.03c-0.31,0.02-0.67,0.04-1.08,0.05c-0.41,0.02-0.86,0.04-1.32,0.05c-0.47,0.02-0.9,0.03-1.3,0.03
		c-0.29,0-0.43-0.11-0.43-0.32c0-0.29,0.13-0.43,0.38-0.43c0.4,0,0.99-0.09,1.78-0.27c0.72-0.18,1.36-0.53,1.92-1.05
		c0.56-0.52,1.22-1.36,1.97-2.51L249.52,70.99z"/>
	<path d="M453.26,63.59c0-2.09,0-3.8,0-5.13c0-1.33,0-2.39,0-3.19c0-0.83-0.01-1.49-0.03-1.97c-0.02-0.49-0.05-0.94-0.08-1.38
		c-0.07-0.94-0.25-1.64-0.54-2.11c-0.29-0.47-0.88-0.79-1.78-0.97c-0.22-0.07-0.51-0.12-0.89-0.13c-0.38-0.02-0.69-0.03-0.95-0.03
		c-0.29,0-0.43-0.11-0.43-0.32c0-0.29,0.29-0.43,0.86-0.43c0.61,0,1.26,0,1.94,0s1.33,0.02,1.94,0.05l2.21,0.11
		c0.11,0,0.74,0,1.89,0c1.19,0,2.5,0,3.94,0c1.48,0,2.85-0.01,4.13-0.03c1.28-0.02,2.08-0.03,2.4-0.03
		c1.04-0.07,1.82-0.16,2.32-0.27c0.14-0.04,0.27-0.09,0.38-0.16c0.11-0.07,0.23-0.11,0.38-0.11c0.14,0,0.22,0.16,0.22,0.49
		c0,0.18-0.05,0.46-0.16,0.84s-0.2,0.94-0.27,1.7c0,0.14-0.01,0.38-0.03,0.7c-0.02,0.32-0.05,0.68-0.08,1.05
		c-0.04,0.38-0.06,0.74-0.08,1.08c-0.02,0.34-0.05,0.59-0.08,0.73c-0.04,0.14-0.08,0.28-0.13,0.4c-0.05,0.13-0.13,0.19-0.24,0.19
		c-0.29,0-0.43-0.23-0.43-0.7c0-0.18-0.02-0.47-0.05-0.86c-0.04-0.4-0.13-0.76-0.27-1.08c-0.18-0.43-0.5-0.8-0.97-1.11
		c-0.47-0.31-1.42-0.55-2.86-0.73c-0.22-0.04-0.7-0.06-1.46-0.08c-0.76-0.02-1.55-0.04-2.38-0.05c-0.83-0.02-1.6-0.03-2.32-0.03
		c-0.68,0-1.1,0-1.24,0c-0.22,0-0.32,0.18-0.32,0.54v14.9c0,0.36,0.11,0.54,0.32,0.54c0.18,0,0.67,0,1.46,0s1.66,0,2.59,0
		c0.97,0,1.89-0.01,2.75-0.03c0.86-0.02,1.46-0.04,1.78-0.08c0.65-0.07,1.17-0.14,1.57-0.22c0.4-0.07,0.72-0.25,0.97-0.54
		c0.4-0.47,0.67-0.7,0.81-0.7c0.18,0,0.27,0.14,0.27,0.43c0,0.18-0.05,0.5-0.16,0.97c-0.11,0.47-0.2,1.15-0.27,2.05
		c-0.04,0.29-0.06,0.6-0.08,0.95c-0.02,0.34-0.04,0.68-0.05,1.03c-0.02,0.34-0.04,0.65-0.05,0.92c-0.02,0.27-0.03,0.46-0.03,0.57
		c0,0.22-0.02,0.44-0.05,0.68c-0.04,0.23-0.14,0.35-0.32,0.35c-0.25,0-0.38-0.16-0.38-0.49c0-0.29-0.01-0.57-0.03-0.84
		c-0.02-0.27-0.08-0.58-0.19-0.94c-0.11-0.4-0.34-0.78-0.7-1.16c-0.36-0.38-1.06-0.62-2.11-0.73c-0.36-0.04-0.93-0.07-1.7-0.11
		c-0.77-0.04-1.57-0.06-2.38-0.08c-0.81-0.02-1.57-0.04-2.27-0.05c-0.7-0.02-1.16-0.03-1.38-0.03c-0.25,0-0.38,0.13-0.38,0.38v4.75
		c0,0.47,0,1.15,0,2.05c0,0.9,0,1.84,0,2.81c0,0.97,0,1.87,0,2.7c0,0.83,0,1.39,0,1.67c0.04,0.94,0.13,1.69,0.3,2.27
		c0.16,0.58,0.47,1.03,0.92,1.35c0.45,0.32,1.07,0.54,1.86,0.65s1.85,0.16,3.19,0.16c0.72,0,1.58-0.03,2.59-0.08
		s1.87-0.22,2.59-0.51c0.72-0.29,1.26-0.73,1.62-1.32c0.36-0.59,0.63-1.45,0.81-2.56c0.11-0.54,0.27-0.81,0.49-0.81
		c0.18,0,0.28,0.09,0.3,0.27c0.02,0.18,0.03,0.36,0.03,0.54c0,0.11-0.03,0.39-0.08,0.84c-0.05,0.45-0.12,0.95-0.19,1.51
		c-0.07,0.56-0.14,1.11-0.22,1.65c-0.07,0.54-0.14,0.95-0.22,1.24c-0.11,0.36-0.22,0.63-0.32,0.81c-0.11,0.18-0.27,0.31-0.49,0.4
		s-0.49,0.14-0.81,0.16c-0.32,0.02-0.76,0.03-1.3,0.03c-2.05,0-3.83-0.02-5.32-0.05c-1.5-0.04-2.76-0.07-3.81-0.11
		c-1.04-0.07-1.91-0.12-2.59-0.14c-0.68-0.02-1.22-0.03-1.62-0.03c-0.07,0-0.31,0-0.7,0c-0.4,0-0.88,0.02-1.46,0.05
		c-0.54,0-1.1,0.02-1.67,0.05c-0.58,0.04-1.06,0.05-1.46,0.05c-0.58,0-0.86-0.14-0.86-0.43c0-0.22,0.14-0.32,0.43-0.32
		c0.25,0,0.52-0.02,0.81-0.05c0.29-0.04,0.56-0.09,0.81-0.16c0.54-0.11,0.91-0.43,1.11-0.97c0.2-0.54,0.35-1.21,0.46-2
		c0.14-1.15,0.22-2.75,0.24-4.78c0.02-2.03,0.03-4.35,0.03-6.94V63.59z"/>
	<path d="M484.96,67.32c0-1.76,0-3.2,0-4.32c0-1.12,0-2.02,0-2.7c0-0.72-0.01-1.29-0.03-1.7c-0.02-0.41-0.04-0.8-0.08-1.16
		c-0.07-0.79-0.22-1.39-0.43-1.78c-0.22-0.4-0.72-0.65-1.51-0.76c-0.18-0.04-0.44-0.06-0.78-0.08c-0.34-0.02-0.62-0.03-0.84-0.03
		c-0.25,0-0.38-0.13-0.38-0.38c0-0.25,0.25-0.38,0.76-0.38c0.54,0,1.12,0.01,1.73,0.03c0.61,0.02,1.19,0.03,1.73,0.03
		s1,0.01,1.38,0.03c0.38,0.02,0.6,0.03,0.67,0.03c0.14,0,0.42-0.01,0.84-0.03c0.41-0.02,0.91-0.03,1.49-0.03
		c0.61,0,1.26-0.01,1.94-0.03c0.68-0.02,1.39-0.03,2.11-0.03c1.19,0,2.58,0.01,4.18,0.03c1.6,0.02,3.28,0.17,5.02,0.46
		c1.75,0.29,3.47,0.8,5.18,1.54c1.71,0.74,3.27,1.81,4.67,3.21c1.19,1.19,2.26,2.75,3.21,4.67c0.95,1.93,1.43,4.26,1.43,6.99
		c0,1.44-0.14,2.8-0.43,4.08c-0.29,1.28-0.67,2.46-1.13,3.54s-1.02,2.06-1.65,2.94c-0.63,0.88-1.27,1.67-1.92,2.35
		c-0.5,0.54-1.16,1.12-1.97,1.73c-0.81,0.61-1.8,1.18-2.97,1.7c-1.17,0.52-2.54,0.96-4.1,1.32c-1.57,0.36-3.36,0.54-5.37,0.54
		c-1.04,0-2.15-0.03-3.32-0.08s-2.28-0.12-3.32-0.19c-1.04-0.07-1.93-0.14-2.65-0.19c-0.72-0.05-1.13-0.08-1.24-0.08
		c-0.07,0-0.29,0.01-0.65,0.03c-0.36,0.02-0.79,0.03-1.3,0.03c-0.5,0.04-1.01,0.06-1.51,0.08c-0.5,0.02-0.95,0.03-1.35,0.03
		c-0.5,0-0.76-0.13-0.76-0.38s0.12-0.38,0.38-0.38c0.22,0,0.46-0.02,0.73-0.05c0.27-0.04,0.51-0.09,0.73-0.16
		c0.47-0.11,0.76-0.37,0.89-0.78c0.13-0.41,0.24-0.96,0.35-1.65c0.14-0.94,0.22-2.27,0.24-4c0.02-1.73,0.03-3.71,0.03-5.94V67.32z
		 M489.28,72.29c0,1.22,0,2.39,0,3.51c0,1.12,0,2.12,0,3.02c0,0.86,0.01,1.6,0.03,2.21c0.02,0.61,0.03,1.03,0.03,1.24
		c0.04,0.58,0.09,1.21,0.16,1.89c0.07,0.68,0.2,1.15,0.38,1.4c0.14,0.22,0.38,0.43,0.7,0.65c0.32,0.22,0.78,0.41,1.38,0.59
		c0.59,0.18,1.36,0.32,2.29,0.43c0.94,0.11,2.11,0.16,3.51,0.16c2.2,0,4.24-0.35,6.13-1.05c1.89-0.7,3.55-1.74,5-3.1
		c0.61-0.58,1.15-1.27,1.62-2.08c0.47-0.81,0.85-1.69,1.16-2.65c0.31-0.95,0.54-1.96,0.7-3.02c0.16-1.06,0.24-2.11,0.24-3.16
		c0-1.44-0.14-2.76-0.43-3.97c-0.29-1.21-0.65-2.29-1.08-3.24c-0.43-0.95-0.92-1.78-1.46-2.48c-0.54-0.7-1.04-1.3-1.51-1.81
		c-1.12-1.12-2.28-2.02-3.48-2.7c-1.21-0.68-2.46-1.21-3.75-1.57c-1.3-0.36-2.63-0.59-4-0.7s-2.75-0.16-4.16-0.16
		c-0.47,0-1.01,0.04-1.62,0.11c-0.61,0.07-1.03,0.14-1.24,0.22c-0.4,0.14-0.59,0.45-0.59,0.92V72.29z"/>
	<path d="M558.18,81.95h0.22c0.18-0.61,0.45-1.48,0.81-2.59c0.36-1.12,0.76-2.36,1.19-3.73c0.43-1.37,0.89-2.83,1.38-4.37
		c0.49-1.55,0.96-3.06,1.43-4.54c0.47-1.48,0.9-2.89,1.3-4.24s0.74-2.51,1.03-3.48c0.25-0.86,0.41-1.49,0.46-1.86s0.08-0.71,0.08-1
		c0-0.4-0.15-0.72-0.46-0.97c-0.31-0.25-1-0.38-2.08-0.38c-0.14,0-0.25-0.05-0.32-0.16c-0.07-0.11-0.11-0.2-0.11-0.27
		c0-0.22,0.27-0.32,0.81-0.32c1.22,0,2.29,0.02,3.19,0.05c0.9,0.04,1.46,0.05,1.67,0.05c0.07,0,0.24-0.01,0.51-0.03
		c0.27-0.02,0.58-0.03,0.95-0.03c0.4,0,0.8-0.01,1.21-0.03c0.41-0.02,0.8-0.03,1.16-0.03c0.43,0,0.65,0.09,0.65,0.27
		c0,0.11-0.03,0.22-0.08,0.32c-0.05,0.11-0.17,0.16-0.35,0.16c-0.07,0-0.29,0.02-0.65,0.05c-0.36,0.04-0.68,0.09-0.97,0.16
		c-0.72,0.25-1.3,0.81-1.73,1.67c-0.43,0.86-0.88,1.93-1.35,3.19c-0.36,0.97-0.77,2.16-1.24,3.56c-0.47,1.4-0.97,2.91-1.51,4.51
		c-0.54,1.6-1.1,3.26-1.67,4.97c-0.58,1.71-1.13,3.35-1.65,4.91s-1.01,3.01-1.46,4.32c-0.45,1.31-0.84,2.4-1.16,3.27
		c-0.32,0.86-0.59,1.55-0.78,2.05c-0.2,0.5-0.37,0.9-0.51,1.19c-0.14,0.29-0.27,0.48-0.38,0.57c-0.11,0.09-0.23,0.13-0.38,0.13
		c-0.25,0-0.5-0.17-0.73-0.51c-0.23-0.34-0.51-0.96-0.84-1.86l-9.29-25.11c-0.29,0.68-0.68,1.67-1.19,2.97
		c-0.5,1.3-1.07,2.75-1.7,4.37c-0.63,1.62-1.29,3.32-1.97,5.1c-0.68,1.78-1.34,3.48-1.97,5.1c-0.63,1.62-1.21,3.1-1.73,4.43
		c-0.52,1.33-0.93,2.36-1.21,3.08c-0.4,0.97-0.7,1.62-0.92,1.94s-0.47,0.49-0.76,0.49c-0.11,0-0.23-0.05-0.35-0.13
		c-0.13-0.09-0.25-0.26-0.38-0.51c-0.13-0.25-0.28-0.61-0.46-1.08c-0.18-0.47-0.4-1.1-0.65-1.89l-8.42-27.22
		c-0.18-0.61-0.35-1.12-0.51-1.51c-0.16-0.4-0.34-0.72-0.54-0.97c-0.2-0.25-0.41-0.45-0.62-0.59c-0.22-0.14-0.49-0.27-0.81-0.38
		c-0.32-0.11-0.72-0.18-1.19-0.22c-0.47-0.04-0.79-0.05-0.97-0.05c-0.29,0-0.43-0.14-0.43-0.43c0-0.22,0.25-0.32,0.76-0.32
		c1.26,0,2.45,0.02,3.56,0.05c1.12,0.04,1.8,0.05,2.05,0.05c0.22,0,0.8-0.02,1.75-0.05c0.95-0.04,2.03-0.05,3.21-0.05
		c0.58,0,0.86,0.11,0.86,0.32c0,0.14-0.05,0.25-0.16,0.32c-0.11,0.07-0.22,0.11-0.32,0.11c-0.18,0-0.43,0.01-0.76,0.03
		c-0.32,0.02-0.63,0.1-0.92,0.24c-0.18,0.07-0.33,0.18-0.46,0.32c-0.13,0.14-0.19,0.36-0.19,0.65c0,0.29,0.08,0.81,0.24,1.57
		s0.39,1.66,0.68,2.7c0.14,0.47,0.38,1.3,0.7,2.48c0.32,1.19,0.69,2.53,1.11,4.02c0.41,1.49,0.86,3.06,1.35,4.7
		c0.49,1.64,0.94,3.19,1.35,4.64c0.41,1.46,0.77,2.71,1.08,3.75c0.3,1.04,0.51,1.73,0.62,2.05h0.11l9.94-25.65
		c0.36-0.94,0.63-1.52,0.81-1.75c0.18-0.23,0.34-0.35,0.49-0.35c0.18,0,0.37,0.16,0.57,0.49c0.2,0.32,0.44,0.88,0.73,1.67
		L558.18,81.95z"/>
	<path d="M585.45,54.95c0.29-0.76,0.5-1.24,0.65-1.46c0.14-0.22,0.31-0.32,0.49-0.32c0.25,0,0.44,0.15,0.57,0.46
		c0.13,0.31,0.32,0.71,0.57,1.21c0.14,0.32,0.46,1.08,0.95,2.27c0.49,1.19,1.07,2.62,1.75,4.29c0.68,1.67,1.43,3.51,2.24,5.51
		c0.81,2,1.61,3.97,2.4,5.91s1.54,3.79,2.24,5.54c0.7,1.75,1.3,3.2,1.81,4.35c0.43,1.04,0.84,1.87,1.22,2.48
		c0.38,0.61,0.74,1.1,1.08,1.46c0.34,0.36,0.66,0.61,0.94,0.76c0.29,0.14,0.56,0.25,0.81,0.32c0.36,0.11,0.7,0.18,1.03,0.22
		c0.32,0.04,0.61,0.05,0.86,0.05c0.14,0,0.28,0.03,0.41,0.08c0.12,0.05,0.19,0.15,0.19,0.3c0,0.14-0.11,0.24-0.32,0.3
		c-0.22,0.05-0.47,0.08-0.76,0.08c-0.18,0-0.52,0-1.03,0c-0.47,0-1.06,0-1.78,0c-0.68,0-1.43-0.01-2.24-0.03
		c-0.81-0.02-1.63-0.05-2.46-0.08c-0.47-0.04-0.86-0.06-1.19-0.08c-0.32-0.02-0.49-0.1-0.49-0.24c0-0.11,0.03-0.17,0.08-0.19
		c0.05-0.02,0.13-0.06,0.24-0.14c0.14-0.07,0.3-0.2,0.46-0.38c0.16-0.18,0.15-0.47-0.03-0.86l-4.27-10.53
		c-0.11-0.18-0.25-0.27-0.43-0.27h-10.96c-0.22,0-0.38,0.13-0.49,0.38l-2.7,7.34c-0.47,1.22-0.7,2.25-0.7,3.08
		c0,0.47,0.17,0.79,0.51,0.97s0.71,0.27,1.11,0.27h0.43c0.32,0,0.49,0.13,0.49,0.38s-0.23,0.38-0.7,0.38
		c-0.29,0-0.65-0.01-1.08-0.03c-0.43-0.02-0.86-0.04-1.3-0.05c-0.43-0.02-0.82-0.04-1.16-0.05c-0.34-0.02-0.58-0.03-0.73-0.03
		c-0.11,0-0.33,0.01-0.68,0.03c-0.34,0.02-0.74,0.04-1.19,0.05c-0.45,0.02-0.94,0.04-1.46,0.05c-0.52,0.02-1.02,0.03-1.49,0.03
		c-0.61,0-0.92-0.13-0.92-0.38s0.14-0.38,0.43-0.38c0.18,0,0.41-0.01,0.7-0.03c0.29-0.02,0.52-0.04,0.7-0.08
		c1.08-0.14,1.9-0.59,2.46-1.35c0.56-0.76,1.07-1.71,1.54-2.86L585.45,54.95z M590.75,74.07c0.14,0,0.2-0.11,0.16-0.32l-4.7-12.58
		c-0.29-0.68-0.56-0.68-0.81,0l-4.43,12.58c-0.07,0.22-0.02,0.32,0.16,0.32H590.75z"/>
	<path d="M611.91,67.32c0-1.76,0-3.2,0-4.32c0-1.12,0-2.02,0-2.7c0-0.72-0.01-1.29-0.03-1.7c-0.02-0.41-0.04-0.8-0.08-1.16
		c-0.07-0.79-0.22-1.39-0.43-1.78c-0.22-0.4-0.72-0.65-1.51-0.76c-0.18-0.04-0.44-0.06-0.78-0.08c-0.34-0.02-0.62-0.03-0.84-0.03
		c-0.25,0-0.38-0.13-0.38-0.38c0-0.25,0.25-0.38,0.76-0.38c0.54,0,1.12,0.01,1.75,0.03c0.63,0.02,1.21,0.03,1.75,0.03
		s1.01,0.01,1.4,0.03c0.4,0.02,0.63,0.03,0.7,0.03c0.11,0,0.41-0.01,0.92-0.03c0.5-0.02,1.06-0.03,1.67-0.03
		c0.61,0,1.23-0.01,1.86-0.03c0.63-0.02,1.12-0.03,1.48-0.03c1.51,0,3.05,0.12,4.62,0.35c1.57,0.23,2.98,0.78,4.24,1.65
		c0.29,0.22,0.62,0.51,1,0.89s0.74,0.84,1.08,1.38c0.34,0.54,0.63,1.14,0.86,1.81c0.23,0.67,0.35,1.4,0.35,2.19
		c0,1.69-0.42,3.39-1.27,5.1c-0.85,1.71-2.37,3.5-4.56,5.37c1.94,2.45,3.74,4.68,5.4,6.7c1.66,2.02,3.17,3.74,4.54,5.18
		c1.26,1.3,2.3,2.13,3.13,2.51s1.55,0.6,2.16,0.68c0.47,0.07,0.83,0.12,1.08,0.13c0.25,0.02,0.45,0.03,0.59,0.03
		c0.29,0,0.43,0.13,0.43,0.38c0,0.14-0.08,0.24-0.24,0.3c-0.16,0.05-0.46,0.08-0.89,0.08h-2.97c-1.37,0-2.4-0.07-3.1-0.22
		c-0.7-0.14-1.36-0.38-1.97-0.7c-1.04-0.54-2.04-1.37-3-2.48c-0.96-1.12-2.12-2.54-3.48-4.27c-0.5-0.61-1.01-1.25-1.51-1.92
		c-0.5-0.67-0.98-1.3-1.43-1.89c-0.45-0.59-0.86-1.14-1.24-1.65c-0.38-0.5-0.69-0.92-0.95-1.24c-0.18-0.18-0.4-0.27-0.65-0.27
		l-6.05-0.11c-0.22,0-0.32,0.13-0.32,0.38v1.08c0,2.23,0.01,4.2,0.03,5.91c0.02,1.71,0.08,3.03,0.19,3.97
		c0.07,0.68,0.22,1.23,0.46,1.65c0.23,0.41,0.71,0.67,1.43,0.78c0.32,0.07,0.7,0.13,1.13,0.16c0.43,0.04,0.76,0.05,0.97,0.05
		c0.25,0,0.38,0.13,0.38,0.38s-0.25,0.38-0.76,0.38c-0.65,0-1.3-0.01-1.97-0.03c-0.67-0.02-1.28-0.04-1.84-0.05
		c-0.56-0.02-1.03-0.04-1.4-0.05c-0.38-0.02-0.58-0.03-0.62-0.03c-0.72,0.04-1.32,0.06-1.81,0.08c-0.49,0.02-1,0.04-1.54,0.05
		c-0.54,0.02-0.99,0.03-1.35,0.03c-0.5,0-0.76-0.13-0.76-0.38s0.12-0.38,0.38-0.38c0.22,0,0.46-0.02,0.73-0.05
		c0.27-0.04,0.51-0.09,0.73-0.16c0.47-0.11,0.76-0.37,0.89-0.78c0.13-0.41,0.24-0.96,0.35-1.65c0.14-0.94,0.22-2.27,0.24-4
		c0.02-1.73,0.03-3.71,0.03-5.94V67.32z M616.02,71.21c0,0.25,0.11,0.45,0.32,0.59c0.18,0.11,0.45,0.2,0.81,0.27
		c0.36,0.07,0.78,0.14,1.27,0.22c0.49,0.07,1,0.13,1.54,0.16c0.54,0.04,1.08,0.05,1.62,0.05c0.58,0,1.17-0.04,1.78-0.11
		c0.61-0.07,1.21-0.31,1.78-0.7c0.83-0.54,1.51-1.4,2.05-2.59s0.81-2.66,0.81-4.43c0-2.88-0.73-5.1-2.19-6.67
		c-1.46-1.57-3.47-2.35-6.02-2.35c-0.72,0-1.4,0.03-2.05,0.08c-0.65,0.05-1.1,0.12-1.35,0.19c-0.25,0.14-0.38,0.32-0.38,0.54V71.21z
		"/>
	<path d="M648.2,67.32c0-1.76,0-3.2,0-4.32c0-1.12,0-2.02,0-2.7c0-0.72-0.01-1.29-0.03-1.7c-0.02-0.41-0.04-0.8-0.08-1.16
		c-0.07-0.79-0.22-1.39-0.43-1.78c-0.22-0.4-0.72-0.65-1.51-0.76c-0.18-0.04-0.44-0.06-0.78-0.08c-0.34-0.02-0.62-0.03-0.84-0.03
		c-0.25,0-0.38-0.13-0.38-0.38c0-0.25,0.25-0.38,0.76-0.38c0.54,0,1.12,0.01,1.73,0.03c0.61,0.02,1.19,0.03,1.73,0.03
		s1,0.01,1.38,0.03c0.38,0.02,0.6,0.03,0.67,0.03c0.14,0,0.42-0.01,0.84-0.03c0.41-0.02,0.91-0.03,1.49-0.03
		c0.61,0,1.26-0.01,1.94-0.03c0.68-0.02,1.39-0.03,2.11-0.03c1.19,0,2.58,0.01,4.18,0.03c1.6,0.02,3.28,0.17,5.02,0.46
		c1.75,0.29,3.47,0.8,5.18,1.54c1.71,0.74,3.27,1.81,4.67,3.21c1.19,1.19,2.26,2.75,3.21,4.67c0.95,1.93,1.43,4.26,1.43,6.99
		c0,1.44-0.14,2.8-0.43,4.08c-0.29,1.28-0.67,2.46-1.13,3.54s-1.02,2.06-1.65,2.94c-0.63,0.88-1.27,1.67-1.92,2.35
		c-0.5,0.54-1.16,1.12-1.97,1.73c-0.81,0.61-1.8,1.18-2.97,1.7c-1.17,0.52-2.54,0.96-4.1,1.32c-1.57,0.36-3.36,0.54-5.37,0.54
		c-1.04,0-2.15-0.03-3.32-0.08s-2.28-0.12-3.32-0.19c-1.04-0.07-1.93-0.14-2.65-0.19c-0.72-0.05-1.13-0.08-1.24-0.08
		c-0.07,0-0.29,0.01-0.65,0.03c-0.36,0.02-0.79,0.03-1.3,0.03c-0.5,0.04-1.01,0.06-1.51,0.08c-0.5,0.02-0.95,0.03-1.35,0.03
		c-0.5,0-0.76-0.13-0.76-0.38s0.12-0.38,0.38-0.38c0.22,0,0.46-0.02,0.73-0.05c0.27-0.04,0.51-0.09,0.73-0.16
		c0.47-0.11,0.76-0.37,0.89-0.78c0.13-0.41,0.24-0.96,0.35-1.65c0.14-0.94,0.22-2.27,0.24-4c0.02-1.73,0.03-3.71,0.03-5.94V67.32z
		 M652.52,72.29c0,1.22,0,2.39,0,3.51c0,1.12,0,2.12,0,3.02c0,0.86,0.01,1.6,0.03,2.21c0.02,0.61,0.03,1.03,0.03,1.24
		c0.04,0.58,0.09,1.21,0.16,1.89c0.07,0.68,0.2,1.15,0.38,1.4c0.14,0.22,0.38,0.43,0.7,0.65c0.32,0.22,0.78,0.41,1.38,0.59
		c0.59,0.18,1.36,0.32,2.29,0.43c0.94,0.11,2.11,0.16,3.51,0.16c2.2,0,4.24-0.35,6.13-1.05c1.89-0.7,3.55-1.74,5-3.1
		c0.61-0.58,1.15-1.27,1.62-2.08c0.47-0.81,0.85-1.69,1.16-2.65c0.31-0.95,0.54-1.96,0.7-3.02c0.16-1.06,0.24-2.11,0.24-3.16
		c0-1.44-0.14-2.76-0.43-3.97c-0.29-1.21-0.65-2.29-1.08-3.24c-0.43-0.95-0.92-1.78-1.46-2.48c-0.54-0.7-1.04-1.3-1.51-1.81
		c-1.12-1.12-2.28-2.02-3.48-2.7c-1.21-0.68-2.46-1.21-3.75-1.57c-1.3-0.36-2.63-0.59-4-0.7s-2.75-0.16-4.16-0.16
		c-0.47,0-1.01,0.04-1.62,0.11c-0.61,0.07-1.03,0.14-1.24,0.22c-0.4,0.14-0.59,0.45-0.59,0.92V72.29z"/>
	<path d="M691.24,89.08c-1.26-0.18-2.38-0.5-3.35-0.97c-0.32-0.18-0.52-0.36-0.59-0.54c-0.07-0.18-0.11-0.58-0.11-1.19
		c0-1.15,0.04-2.15,0.11-3c0.07-0.85,0.12-1.47,0.16-1.86c0-0.5,0.12-0.76,0.38-0.76c0.29,0,0.43,0.18,0.43,0.54
		c0,0.18,0.01,0.42,0.03,0.73c0.02,0.31,0.06,0.62,0.13,0.94c0.18,0.83,0.52,1.53,1.03,2.11c0.5,0.58,1.11,1.04,1.81,1.4
		c0.7,0.36,1.46,0.62,2.27,0.78c0.81,0.16,1.61,0.24,2.4,0.24c2.38,0,4.16-0.58,5.35-1.75c1.19-1.17,1.78-2.62,1.78-4.35
		c0-0.83-0.12-1.57-0.35-2.21c-0.23-0.65-0.59-1.27-1.08-1.86c-0.49-0.59-1.11-1.2-1.86-1.81c-0.76-0.61-1.66-1.31-2.7-2.11
		l-2.16-1.62c-2.56-1.91-4.33-3.63-5.32-5.16c-0.99-1.53-1.49-3.09-1.49-4.67c0-1.33,0.25-2.54,0.76-3.62
		c0.5-1.08,1.22-1.99,2.16-2.73c0.94-0.74,2.04-1.3,3.32-1.7c1.28-0.4,2.71-0.59,4.29-0.59c0.94,0,1.84,0.05,2.73,0.16
		s1.61,0.23,2.19,0.38c0.47,0.11,0.82,0.17,1.05,0.19c0.23,0.02,0.44,0.03,0.62,0.03c0.32,0,0.49,0.11,0.49,0.32
		c0,0.11-0.04,0.55-0.11,1.32c-0.07,0.77-0.11,1.95-0.11,3.54c0,0.68-0.13,1.03-0.38,1.03c-0.18,0-0.29-0.05-0.32-0.16
		c-0.04-0.11-0.07-0.25-0.11-0.43c-0.04-0.29-0.13-0.67-0.27-1.16c-0.14-0.49-0.29-0.85-0.43-1.11c-0.07-0.14-0.23-0.34-0.49-0.59
		c-0.25-0.25-0.62-0.5-1.11-0.76c-0.49-0.25-1.1-0.47-1.84-0.65c-0.74-0.18-1.65-0.27-2.73-0.27c-1.73,0-3.21,0.42-4.45,1.27
		c-1.24,0.85-1.86,2.08-1.86,3.7c0,0.72,0.1,1.39,0.3,2c0.2,0.61,0.54,1.21,1.03,1.81c0.49,0.59,1.12,1.21,1.89,1.84
		c0.77,0.63,1.75,1.34,2.94,2.13l1.35,0.92c1.44,0.97,2.65,1.92,3.64,2.83s1.79,1.82,2.4,2.7c0.61,0.88,1.05,1.78,1.32,2.7
		c0.27,0.92,0.41,1.86,0.41,2.83c0,1.37-0.32,2.74-0.95,4.1c-0.63,1.37-1.79,2.61-3.48,3.73c-1.01,0.65-2.2,1.08-3.56,1.3
		c-1.37,0.22-2.7,0.32-4,0.32C693.69,89.35,692.5,89.26,691.24,89.08z"/>
</g>
<g>
	<polygon class="st0" points="417.1,31.71 416.9,104.53 361,131.07 361.2,58.25 	"/>
	<path class="st1" d="M326.99,43.2"/>
	<g>
		<polygon class="st2" points="303.89,28.15 303.89,103.53 359.62,131.72 359.81,55.68 		"/>
		<line class="st3" x1="330.91" y1="36.7" x2="330.9" y2="123.22"/>
	</g>
	<line class="st4" x1="360.97" y1="94.77" x2="417.6" y2="67.36"/>
	<line class="st4" x1="359.81" y1="50.33" x2="359.79" y2="136.85"/>
	<polygon class="st5" points="360.08,8.07 300.05,30.83 359.62,57.46 419.2,31.15 	"/>
</g>
</svg>
